<?xml version="1.0" encoding="UTF-8"?>
<svg width="233px" height="89px" viewBox="0 0 233 89" version="1.1" xmlns="http://www.w3.org/2000/svg" xmlns:xlink="http://www.w3.org/1999/xlink">
    <!-- Generator: Sketch 49.3 (51167) - http://www.bohemiancoding.com/sketch -->
    <title>Group 2</title>
    <desc>Created with Sketch.</desc>
    <defs></defs>
    <g id="Page-1" stroke="none" stroke-width="1" fill="none" fill-rule="evenodd">
        <g id="Detail" transform="translate(-72.000000, -60.000000)" fill="#222221">
            <g id="Group-2" transform="translate(72.000000, 50.000000)">
                <g id="logo-small-dark" transform="translate(0.000000, 60.000000)" fill-rule="nonzero">
                    <path d="M35.7395957,32.1486486 L35.1854935,31.6216216 L33.8002378,30.0405405 L33.2461356,29.5135135 L32.4149822,28.4594595 L31.8608799,27.9324324 L31.5838288,27.6689189 L31.0297265,27.1418919 L30.4756243,26.8783784 L29.921522,26.8783784 L29.6444709,26.8783784 L29.0903686,27.1418919 L28.2592152,27.6689189 L27.1510107,28.1959459 L26.3198573,28.4594595 L25.4887039,28.722973 L24.6575505,28.9864865 L23.2722949,29.5135135 L22.4411415,29.777027 L21.8870392,29.777027 L21.0558859,30.0405405 L19.9476813,30.0405405 L18.5624257,30.0405405 L17.7312723,29.777027 L17.17717,29.5135135 L16.3460166,29.25 L15.2378121,28.722973 L14.4066587,28.1959459 L13.2984542,27.4054054 L12.744352,26.8783784 L11.9131986,25.8243243 L11.3590963,25.0337838 L11.0820452,24.2432432 L10.8049941,23.4527027 L10.5279429,22.3986486 L10.5279429,21.6081081 L10.5279429,20.2905405 L10.5279429,19.5 L10.5279429,17.9189189 L10.5279429,17.1283784 L10.8049941,16.3378378 L11.0820452,15.5472973 L11.3590963,14.7567568 L11.6361474,13.9662162 L11.9131986,13.1756757 L12.4673008,12.3851351 L13.0214031,11.5945946 L13.2984542,11.3310811 L14.1296076,10.8040541 L15.2378121,10.277027 L16.0689655,10.0135135 L16.9001189,9.75 L18.0083234,9.48648649 L18.8394768,9.22297297 L19.9476813,9.22297297 L20.7788347,9.22297297 L22.1640904,9.22297297 L22.9952438,9.48648649 L24.1034483,9.75 L24.9346017,10.0135135 L26.0428062,10.5405405 L26.8739596,10.8040541 L27.9821641,11.5945946 L28.5362663,11.8581081 L28.8133175,11.8581081 L29.0903686,11.8581081 L29.3674197,11.5945946 L29.921522,11.0675676 L31.0297265,11.0675676 L31.5838288,10.5405405 L32.4149822,9.48648649 L32.9690844,8.95945946 L33.5231867,8.43243243 L34.0772889,7.90540541 L34.6313912,7.37837838 L35.1854935,6.85135135 L35.4625446,6.32432432 L35.4625446,5.7972973 L35.4625446,5.27027027 L35.1854935,5.00675676 L34.9084423,4.74324324 L34.3543401,4.21621622 L32.6920333,3.16216216 L31.3067776,2.37162162 L30.4756243,1.84459459 L29.3674197,1.05405405 L28.5362663,0.790540541 L26.5969084,0.527027027 L25.4887039,0.263513514 L24.6575505,0 L22.7181926,0 L21.6099881,0 L20.7788347,0 L19.6706302,0 L18.0083234,0 L17.17717,0 L16.3460166,0.263513514 L14.4066587,0.790540541 L13.5755054,1.05405405 L12.744352,1.31756757 L11.0820452,2.10810811 L10.2508918,2.63513514 L9.41973841,3.16216216 L7.75743163,4.21621622 L7.20332937,4.74324324 L6.09512485,5.00675676 L5.54102259,5.53378378 L4.98692033,6.32432432 L4.43281807,7.11486486 L3.87871581,7.90540541 L3.32461356,8.43243243 L2.7705113,9.22297297 L2.21640904,10.0135135 L1.93935791,10.8040541 L1.66230678,11.5945946 L1.38525565,12.6486486 L1.10820452,13.4391892 L0.831153389,14.2297297 L0.554102259,14.7567568 L0.27705113,15.8108108 L0,16.6013514 L0,17.3918919 L0,19.2364865 L0,20.027027 L0,20.8175676 L0,21.6081081 L0,22.6621622 L0,23.4527027 L0.554102259,25.0337838 L0.831153389,26.0878378 L1.66230678,28.1959459 L2.21640904,29.25 L2.49346017,30.0405405 L3.04756243,30.8310811 L3.60166468,31.6216216 L4.15576694,32.4121622 L4.7098692,33.2027027 L5.26397146,33.7297297 L6.64922711,34.7837838 L7.4803805,35.3108108 L8.31153389,35.8378378 L8.86563615,36.3648649 L9.97384067,36.8918919 L10.8049941,37.1554054 L11.9131986,37.6824324 L14.4066587,38.2094595 L15.2378121,38.472973 L16.0689655,38.7364865 L16.9001189,39 L17.7312723,39 L18.5624257,39 L21.332937,39 L22.7181926,39 L23.549346,39 L25.4887039,38.7364865 L26.8739596,38.472973 L27.705113,38.2094595 L28.5362663,37.9459459 L29.3674197,37.6824324 L30.4756243,37.1554054 L31.3067776,36.8918919 L32.4149822,36.3648649 L32.9690844,35.8378378 L34.0772889,35.0472973 L34.6313912,34.5202703 L35.4625446,33.7297297 L36.0166468,33.2027027 L36.0166468,32.9391892 L35.7395957,32.1486486 Z M72.3103448,29.5135135 L71.7562426,28.9864865 L69.8168847,28.722973 L68.9857313,28.722973 L68.1545779,28.722973 L64.2758621,28.9864865 L63.4447087,28.9864865 L59.5659929,28.722973 L56.7954816,28.9864865 L55.9643282,28.9864865 L52.9167658,28.9864865 L52.3626635,28.9864865 L52.0856124,28.722973 L51.8085612,28.4594595 L51.8085612,27.9324324 L51.8085612,26.8783784 L51.8085612,26.0878378 L52.0856124,24.7702703 L52.0856124,23.9797297 L52.3626635,23.7162162 L52.6397146,23.4527027 L53.1938169,23.4527027 L54.0249703,23.4527027 L56.2413793,23.7162162 L57.0725327,23.7162162 L60.3971463,23.7162162 L64.8299643,23.4527027 L65.6611177,23.4527027 L68.1545779,23.7162162 L69.2627824,23.7162162 L69.8168847,23.7162162 L70.0939358,23.4527027 L70.3709869,23.1891892 L70.3709869,22.6621622 L70.3709869,21.0810811 L70.3709869,20.027027 L70.3709869,18.4459459 L70.3709869,17.6554054 L70.3709869,16.8648649 L70.3709869,16.3378378 L70.0939358,16.0743243 L69.8168847,15.0202703 L69.2627824,15.0202703 L67.6004756,15.0202703 L61.5053508,15.0202703 L56.5184304,15.0202703 L54.8561237,15.0202703 L53.1938169,15.0202703 L52.6397146,14.7567568 L52.3626635,14.4932432 L52.3626635,14.2297297 L52.3626635,13.7027027 L52.3626635,12.9121622 L52.3626635,12.1216216 L52.3626635,10.8040541 L52.3626635,10.277027 L52.3626635,10.0135135 L52.6397146,9.75 L53.1938169,9.75 L53.7479191,9.75 L54.5790725,9.75 L57.0725327,10.0135135 L59.843044,10.0135135 L60.6741974,10.0135135 L63.4447087,10.0135135 L64.2758621,10.0135135 L69.2627824,10.0135135 L70.0939358,10.0135135 L70.648038,10.0135135 L71.2021403,10.0135135 L71.4791914,9.75 L71.7562426,9.48648649 L71.7562426,8.95945946 L71.7562426,8.16891892 L71.7562426,7.37837838 L71.7562426,6.06081081 L71.7562426,5.27027027 L71.7562426,3.9527027 L71.7562426,2.63513514 L71.7562426,1.84459459 L71.7562426,1.58108108 L71.4791914,1.31756757 L70.3709869,0.527027027 L68.9857313,0.527027027 L67.0463734,0.790540541 L66.21522,0.790540541 L59.0118906,0.790540541 L58.1807372,0.790540541 L54.8561237,1.05405405 L54.0249703,1.05405405 L50.7003567,0.790540541 L49.8692033,0.790540541 L46.5445898,0.790540541 L42.9429251,0.527027027 L42.1117717,0.527027027 L41.5576694,0.527027027 L41.2806183,0.790540541 L41.0035672,1.31756757 L41.0035672,2.10810811 L40.7265161,4.74324324 L40.7265161,5.53378378 L40.7265161,7.11486486 L40.7265161,8.43243243 L40.7265161,9.22297297 L41.0035672,11.8581081 L41.0035672,12.6486486 L40.7265161,15.2837838 L40.7265161,19.7635135 L40.7265161,22.3986486 L40.7265161,23.1891892 L41.0035672,25.8243243 L41.0035672,26.6148649 L41.0035672,29.25 L41.0035672,30.0405405 L40.7265161,32.6756757 L40.7265161,33.4662162 L40.7265161,34.2567568 L40.7265161,35.0472973 L40.7265161,36.1013514 L40.7265161,36.6283784 L41.0035672,36.8918919 L41.2806183,37.1554054 L41.8347206,37.1554054 L43.7740785,37.1554054 L48.4839477,36.8918919 L49.3151011,36.8918919 L52.0856124,37.1554054 L55.6872771,37.1554054 L56.5184304,37.1554054 L59.2889417,36.8918919 L60.1200951,36.8918919 L62.8906064,37.1554054 L63.7217598,37.1554054 L70.648038,36.8918919 L70.9250892,36.6283784 L71.2021403,36.3648649 L71.2021403,35.8378378 L71.4791914,33.2027027 L71.4791914,32.4121622 L71.2021403,29.5135135 L72.3103448,29.5135135 Z M232.722949,33.7297297 L232.722949,32.9391892 L232.722949,30.0405405 L232.722949,29.5135135 L232.445898,29.25 L232.168847,28.9864865 L231.614744,28.722973 L230.783591,28.722973 L229.952438,28.722973 L228.01308,28.9864865 L227.181926,28.9864865 L219.424495,28.9864865 L218.593341,28.9864865 L216.931034,28.9864865 L214.991677,28.9864865 L214.437574,28.9864865 L214.160523,28.722973 L214.160523,28.4594595 L214.160523,28.1959459 L214.160523,27.6689189 L214.437574,20.8175676 L214.437574,20.027027 L214.160523,17.1283784 L214.160523,16.3378378 L214.160523,13.4391892 L214.160523,12.6486486 L214.437574,9.75 L214.437574,8.95945946 L214.437574,6.06081081 L214.437574,1.58108108 L213.883472,1.05405405 L213.606421,0.790540541 L213.052319,0.790540541 L209.173603,0.790540541 L208.342449,0.790540541 L205.571938,0.527027027 L204.740785,0.527027027 L204.186683,0.527027027 L203.63258,0.527027027 L203.355529,0.790540541 L203.078478,1.05405405 L202.801427,1.84459459 L202.801427,2.37162162 L202.801427,3.16216216 L202.801427,4.74324324 L202.801427,9.22297297 L202.801427,11.8581081 L202.801427,12.6486486 L203.078478,18.972973 L203.078478,19.7635135 L203.078478,26.0878378 L203.078478,26.8783784 L203.078478,29.5135135 L203.078478,30.3040541 L203.355529,32.9391892 L203.355529,33.7297297 L203.078478,35.5743243 L203.078478,36.3648649 L203.078478,36.8918919 L203.355529,37.1554054 L203.63258,37.4189189 L204.186683,37.4189189 L205.017836,37.4189189 L205.848989,37.4189189 L208.342449,37.1554054 L212.221165,37.1554054 L215.268728,37.4189189 L219.978597,37.1554054 L224.134364,37.1554054 L230.229489,37.4189189 L231.060642,37.4189189 L231.614744,37.4189189 L232.168847,37.4189189 L232.445898,37.1554054 L232.722949,36.8918919 L233,36.3648649 L233,35.8378378 L233,35.0472973 L232.722949,33.7297297 Z M196.429251,29.5135135 L195.875149,28.9864865 L193.935791,28.722973 L193.104637,28.722973 L192.273484,28.722973 L188.394768,28.9864865 L187.563615,28.9864865 L183.684899,28.722973 L180.914388,28.9864865 L180.083234,28.9864865 L177.035672,28.9864865 L176.48157,28.9864865 L176.204518,28.722973 L175.927467,28.4594595 L175.927467,27.9324324 L175.927467,26.8783784 L175.927467,26.0878378 L176.204518,24.7702703 L176.204518,23.9797297 L176.48157,23.7162162 L176.758621,23.4527027 L177.312723,23.4527027 L178.143876,23.4527027 L180.360285,23.7162162 L181.191439,23.7162162 L184.516052,23.7162162 L188.94887,23.4527027 L189.780024,23.4527027 L192.273484,23.7162162 L193.381688,23.7162162 L193.935791,23.7162162 L194.212842,23.4527027 L194.489893,23.1891892 L194.489893,22.6621622 L194.489893,21.0810811 L194.489893,20.027027 L194.489893,18.4459459 L194.489893,17.6554054 L194.489893,16.8648649 L194.489893,16.3378378 L194.212842,16.0743243 L193.935791,15.8108108 L193.381688,15.8108108 L191.719382,15.8108108 L185.624257,16.0743243 L180.637337,16.0743243 L178.97503,16.0743243 L177.312723,16.0743243 L176.758621,15.8108108 L176.48157,15.5472973 L176.48157,15.2837838 L176.48157,14.7567568 L176.48157,13.9662162 L176.48157,13.1756757 L176.48157,11.8581081 L176.48157,11.3310811 L176.48157,11.0675676 L176.758621,10.8040541 L177.312723,10.8040541 L177.866825,10.8040541 L178.697979,10.8040541 L181.191439,11.0675676 L183.96195,11.0675676 L184.793103,11.0675676 L187.563615,11.0675676 L188.394768,11.0675676 L193.381688,11.0675676 L194.212842,11.0675676 L194.489893,11.0675676 L195.043995,11.0675676 L195.321046,10.8040541 L195.598098,10.5405405 L195.598098,10.0135135 L195.598098,9.22297297 L195.598098,8.43243243 L195.598098,7.11486486 L195.598098,6.32432432 L195.598098,5.00675676 L195.598098,3.68918919 L195.598098,2.89864865 L195.598098,2.63513514 L195.321046,2.37162162 L194.489893,0.527027027 L193.104637,0.527027027 L191.165279,0.790540541 L190.334126,0.790540541 L183.130797,0.790540541 L182.299643,0.790540541 L178.97503,1.05405405 L178.143876,1.05405405 L174.819263,0.790540541 L173.988109,0.790540541 L170.663496,0.790540541 L167.338882,0.527027027 L166.507729,0.527027027 L165.953627,0.527027027 L165.676576,0.790540541 L165.399524,1.31756757 L165.399524,2.10810811 L165.122473,4.74324324 L165.122473,5.53378378 L165.122473,7.11486486 L165.122473,8.43243243 L165.122473,9.22297297 L165.399524,11.8581081 L165.399524,12.6486486 L165.122473,15.2837838 L165.122473,19.7635135 L165.122473,22.3986486 L165.122473,23.1891892 L165.399524,25.8243243 L165.399524,26.6148649 L165.399524,29.25 L165.399524,30.0405405 L165.122473,32.6756757 L165.122473,33.4662162 L165.122473,34.2567568 L165.122473,35.0472973 L165.122473,36.1013514 L165.122473,36.6283784 L165.399524,36.8918919 L165.676576,37.1554054 L166.230678,37.1554054 L168.170036,37.1554054 L172.879905,36.8918919 L173.711058,36.8918919 L176.48157,37.1554054 L180.637337,37.1554054 L181.46849,37.1554054 L184.239001,36.8918919 L185.070155,36.8918919 L187.840666,37.1554054 L188.671819,37.1554054 L195.598098,36.8918919 L195.875149,36.6283784 L196.1522,36.3648649 L196.1522,35.8378378 L196.429251,33.2027027 L196.429251,32.4121622 L196.429251,29.5135135 Z M114.422117,5.53378378 L114.422117,4.47972973 L114.422117,3.68918919 L114.422117,2.10810811 L114.422117,1.58108108 L113.868014,1.31756757 L113.036861,1.05405405 L112.205707,1.05405405 L111.374554,1.05405405 L109.158145,1.31756757 L108.604043,1.31756757 L105.833532,1.05405405 L104.725327,1.05405405 L103.894174,1.31756757 L103.340071,1.84459459 L103.06302,2.63513514 L103.06302,3.9527027 L103.340071,6.06081081 L103.340071,6.85135135 L103.340071,10.0135135 L103.340071,10.8040541 L103.340071,13.9662162 L103.340071,14.7567568 L103.06302,17.9189189 L103.06302,18.7094595 L103.340071,21.8716216 L103.340071,22.6621622 L103.06302,24.2432432 L102.785969,25.0337838 L102.508918,25.8243243 L102.231867,26.6148649 L101.677765,27.6689189 L101.123662,28.1959459 L100.292509,28.9864865 L99.4613555,29.5135135 L98.353151,30.0405405 L97.5219976,30.3040541 L96.136742,30.5675676 L95.3055886,30.5675676 L93.9203329,30.5675676 L93.0891795,30.3040541 L91.980975,29.777027 L91.1498216,29.25 L90.3186683,28.4594595 L89.764566,27.9324324 L89.2104637,26.8783784 L88.9334126,26.0878378 L88.6563615,25.0337838 L88.3793103,24.2432432 L88.3793103,22.9256757 L88.3793103,22.1351351 L88.3793103,18.972973 L88.3793103,18.1824324 L88.6563615,15.0202703 L88.6563615,14.2297297 L88.6563615,11.0675676 L88.6563615,10.277027 L88.3793103,7.11486486 L88.3793103,6.32432432 L88.3793103,4.21621622 L88.3793103,3.42567568 L88.3793103,2.63513514 L88.1022592,1.84459459 L87.548157,1.31756757 L86.7170036,1.05405405 L85.608799,1.05405405 L84.7776457,1.05405405 L83.1153389,1.05405405 L82.2841855,1.05405405 L80.8989298,0.527027027 L79.2366231,0.527027027 L78.4054697,0.790540541 L78.1284185,1.31756757 L77.8513674,2.10810811 L77.8513674,2.89864865 L77.8513674,3.68918919 L77.8513674,5.27027027 L77.8513674,10.0135135 L77.5743163,13.1756757 L77.5743163,13.9662162 L77.5743163,17.1283784 L77.5743163,17.9189189 L77.2972652,21.0810811 L77.2972652,21.8716216 L77.2972652,23.7162162 L77.2972652,24.5067568 L77.5743163,25.2972973 L77.8513674,26.3513514 L78.1284185,27.1418919 L78.4054697,27.9324324 L78.6825208,28.722973 L78.9595719,29.5135135 L79.5136742,30.3040541 L80.0677765,31.0945946 L80.8989298,32.4121622 L81.4530321,32.9391892 L82.2841855,33.7297297 L82.8382878,34.2567568 L84.2235434,35.3108108 L85.0546968,35.8378378 L85.8858502,36.3648649 L86.9940547,36.8918919 L87.8252081,37.1554054 L88.3793103,37.4189189 L89.2104637,37.6824324 L89.764566,37.6824324 L90.5957194,37.9459459 L93.6432818,38.2094595 L94.4744352,38.2094595 L95.5826397,38.2094595 L98.0760999,38.2094595 L99.7384067,38.2094595 L100.56956,37.9459459 L101.677765,37.6824324 L102.508918,37.4189189 L103.617122,36.8918919 L104.448276,36.6283784 L105.55648,36.1013514 L106.387634,35.8378378 L107.495838,35.3108108 L108.326992,34.7837838 L109.435196,33.9932432 L110.26635,33.4662162 L110.820452,32.6756757 L111.374554,31.8851351 L112.205707,30.8310811 L112.482759,30.0405405 L113.036861,28.9864865 L113.313912,28.1959459 L113.868014,27.1418919 L114.145065,26.3513514 L114.422117,25.2972973 L114.699168,24.5067568 L114.976219,23.1891892 L114.976219,22.3986486 L114.976219,21.3445946 L114.976219,20.5540541 L114.976219,18.972973 L114.145065,17.3918919 L114.422117,14.2297297 L114.422117,13.4391892 L114.422117,10.277027 L114.422117,9.48648649 L114.145065,6.32432432 L114.422117,5.53378378 Z M160.135553,0.790540541 L159.581451,0.527027027 L158.473246,0.527027027 L155.979786,0.790540541 L152.655172,0.790540541 L151.269917,0.790540541 L150.438763,0.790540541 L150.161712,0.790540541 L149.60761,0.790540541 L149.330559,1.05405405 L148.776457,1.84459459 L148.499405,2.63513514 L147.945303,4.47972973 L147.391201,5.27027027 L146.005945,7.90540541 L145.728894,8.69594595 L144.897741,11.5945946 L144.62069,12.3851351 L143.235434,15.5472973 L142.958383,16.3378378 L142.127229,19.7635135 L141.850178,20.5540541 L140.464923,23.7162162 L140.187872,24.2432432 L139.633769,24.5067568 L139.356718,24.2432432 L139.079667,23.7162162 L137.694411,19.5 L136.586207,16.3378378 L136.309156,15.5472973 L135.200951,12.3851351 L134.9239,11.5945946 L133.815696,8.95945946 L133.538644,7.90540541 L132.153389,5.27027027 L131.876338,4.47972973 L131.322235,2.89864865 L131.045184,2.10810811 L130.768133,1.58108108 L130.491082,1.05405405 L129.93698,1.05405405 L129.105826,1.05405405 L125.781213,0.790540541 L123.287753,0.790540541 L121.071344,0.527027027 L120.24019,0.527027027 L119.963139,0.527027027 L119.409037,0.790540541 L119.131986,1.05405405 L118.854935,1.58108108 L118.854935,2.37162162 L119.131986,2.89864865 L119.409037,3.68918919 L120.517241,5.27027027 L120.794293,6.06081081 L121.625446,8.95945946 L121.902497,9.75 L123.287753,12.3851351 L123.564804,13.1756757 L124.673008,15.8108108 L124.950059,16.6013514 L126.335315,19.5 L126.612366,20.2905405 L127.997622,22.9256757 L128.274673,23.7162162 L129.105826,26.6148649 L129.382878,27.4054054 L130.491082,30.0405405 L130.768133,30.8310811 L132.153389,33.7297297 L132.43044,34.5202703 L133.538644,37.1554054 L133.815696,37.6824324 L134.092747,37.9459459 L134.9239,37.9459459 L135.755054,37.9459459 L138.802616,37.6824324 L139.633769,37.6824324 L143.512485,37.6824324 L144.066587,37.6824324 L144.343639,37.4189189 L144.62069,36.8918919 L145.728894,34.2567568 L146.005945,33.4662162 L147.391201,30.8310811 L147.668252,30.0405405 L148.776457,27.4054054 L149.053508,26.6148649 L150.438763,23.9797297 L150.715815,23.1891892 L151.824019,20.5540541 L152.10107,19.7635135 L153.209275,17.1283784 L153.486326,16.3378378 L154.317479,13.4391892 L154.59453,12.6486486 L155.979786,10.0135135 L156.256837,9.22297297 L157.08799,6.32432432 L157.365042,5.53378378 L158.196195,4.21621622 L158.473246,3.42567568 L158.750297,2.89864865 L159.027348,2.10810811 L158.750297,1.58108108 L160.135553,0.790540541 Z" id="Shape"></path>
                </g>
                <g id="logo-small-dark" transform="translate(167.000000, 11.000000)" fill-rule="nonzero">
                    <path d="M55.04,21.3654135 L54.72,21.0686717 L53.12,20.7719298 L52.48,20.7719298 L51.84,20.7719298 L48.96,21.0686717 L48.32,21.0686717 L45.44,20.7719298 L43.2,21.0686717 L42.56,21.0686717 L40.32,21.0686717 L40,21.0686717 L39.68,20.7719298 L39.68,20.475188 L39.68,20.1784461 L39.68,19.2882206 L39.68,18.6947368 L39.68,17.8045113 L39.68,17.2110276 L39.68,16.9142857 L40,16.9142857 L40.64,16.9142857 L41.28,16.9142857 L42.88,16.9142857 L43.52,16.9142857 L46.08,16.9142857 L49.28,16.6175439 L49.92,16.6175439 L51.84,16.9142857 L52.8,16.9142857 L53.12,16.9142857 L53.44,16.6175439 L53.76,16.320802 L53.76,15.7273183 L53.76,14.5403509 L53.76,13.6501253 L53.76,12.4631579 L53.76,11.8696742 L53.76,11.2761905 L53.76,10.9794486 L53.76,10.6827068 L53.44,10.3859649 L53.12,10.3859649 L51.84,10.3859649 L47.36,10.6827068 L43.52,10.6827068 L42.24,10.6827068 L40.96,10.6827068 L40.64,10.6827068 L40.32,10.3859649 L40.32,10.0892231 L40.32,9.7924812 L40.32,9.19899749 L40.32,8.60551378 L40.32,7.71528822 L40.32,7.41854637 L40.32,7.12180451 L40.64,6.82506266 L40.96,6.82506266 L41.28,6.82506266 L41.6,6.82506266 L43.52,6.82506266 L45.76,6.82506266 L46.4,6.82506266 L48.32,6.82506266 L48.96,6.82506266 L52.8,6.82506266 L53.44,6.82506266 L53.76,6.82506266 L54.4,6.82506266 L54.72,6.82506266 L54.4,6.5283208 L54.4,6.23157895 L54.4,5.63809524 L54.4,5.04461153 L54.4,4.15438596 L54.4,3.56090226 L54.4,2.67067669 L54.4,1.78045113 L54.4,1.18696742 L54.4,0.890225564 L54.08,0.593483709 L53.44,0.593483709 L52.48,0.593483709 L51.2,0.593483709 L50.56,0.593483709 L45.12,0.593483709 L44.48,0.593483709 L41.92,0.593483709 L41.28,0.593483709 L38.72,0.296741855 L38.4,0.296741855 L35.84,0.296741855 L33.28,1.95399252e-14 L32.64,1.95399252e-14 L32.32,1.95399252e-14 L32.32,0.593483709 L32.32,0.890225564 L32.32,1.48370927 L32.32,3.56090226 L32.32,4.15438596 L32.32,5.34135338 L32.32,6.23157895 L32.32,6.82506266 L32.32,8.90225564 L32.32,9.49573935 L32,10.9794486 L32,14.243609 L32,16.320802 L32,16.9142857 L32,18.9914787 L32,19.5849624 L32,21.6621554 L32,22.2556391 L31.68,24.3328321 L31.68,24.9263158 L31.68,25.5197995 L31.68,26.1132832 L31.68,27.0035088 L31.68,27.3002506 L31.68,27.5969925 L32,27.8937343 L32.64,27.8937343 L33.92,27.8937343 L37.44,27.5969925 L38.4,27.5969925 L40.64,27.8937343 L43.52,27.8937343 L44.16,27.8937343 L46.4,27.5969925 L47.04,27.5969925 L49.28,27.8937343 L49.92,27.8937343 L55.04,27.5969925 L55.36,27.3002506 L55.68,27.0035088 L55.68,26.7067669 L56,24.6295739 L56,24.0360902 L56,21.9588972 L55.04,21.3654135 Z M0,27.0035088 L0.64,27.3002506 L2.24,27.5969925 L2.88,27.5969925 L5.76,27.5969925 L6.4,27.5969925 L7.04,27.5969925 L8,27.5969925 L9.28,27.5969925 L9.92,27.5969925 L10.88,27.5969925 L12.16,27.5969925 L12.8,27.5969925 L13.76,27.5969925 L14.4,27.5969925 L16.96,27.3002506 L17.6,27.3002506 L18.24,27.0035088 L18.88,26.7067669 L19.84,26.4100251 L20.48,26.1132832 L21.44,25.8165414 L22.08,25.5197995 L22.72,24.9263158 L23.36,24.6295739 L24.32,23.7393484 L24.96,23.1458647 L25.28,22.8491228 L25.92,22.2556391 L25.6,21.3654135 L25.92,20.475188 L26.24,19.8817043 L26.56,19.2882206 L26.88,18.6947368 L27.2,18.1012531 L27.52,17.5077694 L27.84,16.6175439 L27.84,16.0240602 L27.84,15.1338346 L27.84,14.5403509 L27.84,13.9468672 L27.84,13.3533835 L27.84,12.4631579 L27.84,11.8696742 L27.84,11.2761905 L27.84,10.6827068 L27.52,9.7924812 L27.2,9.19899749 L26.88,8.60551378 L26.56,8.01203008 L26.24,7.41854637 L25.92,6.82506266 L25.6,6.23157895 L25.6,5.63809524 L25.28,5.34135338 L24.96,5.04461153 L24,4.15438596 L23.36,3.56090226 L22.72,3.2641604 L21.44,2.37393484 L20.8,2.07719298 L20.16,1.78045113 L19.52,1.48370927 L17.92,0.890225564 L17.28,0.593483709 L16.64,0.593483709 L16,0.593483709 L15.36,0.593483709 L14.08,0.593483709 L13.12,0.593483709 L12.48,0.593483709 L11.84,0.593483709 L10.24,0.593483709 L9.28,0.593483709 L8.96,0.593483709 L7.04,0.593483709 L6.4,0.593483709 L2.88,0.593483709 L2.24,0.593483709 L1.6,0.593483709 L0.96,0.593483709 L0.64,0.593483709 L0.32,0.890225564 L0.32,1.18696742 L0.32,1.78045113 L0.32,2.37393484 L0.32,3.85764411 L0.32,5.93483709 L0.32,6.5283208 L0.32,8.60551378 L0.32,9.19899749 L0,10.9794486 L0,11.5729323 L0,11.8696742 L0,12.4631579 L0,13.3533835 L0,13.9468672 L0,14.5403509 L0,15.1338346 L0,16.0240602 L0,16.6175439 L0,18.6947368 L0,19.2882206 L0,21.3654135 L0,21.9588972 L0,22.552381 L0,23.1458647 L0,24.0360902 L0,24.6295739 L0,25.8165414 L0,26.1132832 L0,26.7067669 L0,27.0035088 Z M8.32,8.01203008 L8.32,7.12180451 L8.64,6.82506266 L8.96,6.82506266 L9.92,6.82506266 L10.56,6.82506266 L11.52,6.82506266 L12.48,6.82506266 L13.12,6.82506266 L14.08,6.82506266 L14.72,6.82506266 L15.36,6.82506266 L16,7.12180451 L16.96,7.71528822 L17.6,8.01203008 L17.92,8.30877193 L18.24,8.60551378 L18.56,8.90225564 L19.2,9.7924812 L19.2,10.3859649 L19.2,10.6827068 L19.52,11.2761905 L19.52,12.166416 L19.52,12.7598997 L19.52,13.9468672 L19.52,14.8370927 L19.52,15.4305764 L19.2,16.0240602 L19.2,16.6175439 L18.88,17.2110276 L18.56,17.8045113 L17.92,18.397995 L17.6,18.9914787 L16.96,19.5849624 L16.32,19.8817043 L16,20.1784461 L15.36,20.475188 L14.72,20.7719298 L14.08,20.7719298 L13.12,20.7719298 L9.28,21.0686717 L8.64,21.0686717 L8.32,20.7719298 L8,20.475188 L8,19.5849624 L8,18.9914787 L8,18.1012531 L8,17.5077694 L8,16.6175439 L8,16.0240602 L8,15.4305764 L8,13.6501253 L8,12.7598997 L8,12.166416 L8,11.5729323 L8,10.9794486 L8,10.0892231 L8,9.49573935 L8,8.30877193 L8.32,8.01203008 Z M0,37 L55.36,37 L55.36,33.7358396 L0,33.7358396 L0,37 Z" id="Shape"></path>
                </g>
                <path d="M29.472,19.08 L19.68,19.08 L19.68,45 L10.32,45 L10.32,19.08 L0.48,19.08 L0.48,10.92 L29.472,10.92 L29.472,19.08 Z M51.1002365,45.288 C48.5082236,45.288 46.1562471,44.792005 44.0442365,43.8 C41.932226,42.807995 40.124244,41.5040081 38.6202365,39.888 C37.116229,38.2719919 35.9482407,36.4240104 35.1162365,34.344 C34.2842324,32.2639896 33.8682365,30.120011 33.8682365,27.912 C33.8682365,25.6719888 34.3002322,23.5120104 35.1642365,21.432 C36.0282408,19.3519896 37.2362288,17.5200079 38.7882365,15.936 C40.3402443,14.3519921 42.1802259,13.0880047 44.3082365,12.144 C46.4362472,11.1999953 48.7642239,10.728 51.2922365,10.728 C53.8842495,10.728 56.236226,11.223995 58.3482365,12.216 C60.4602471,13.208005 62.268229,14.5199918 63.7722365,16.152 C65.276244,17.7840082 66.4362324,19.6399896 67.2522365,21.72 C68.0682406,23.8000104 68.4762365,25.9279891 68.4762365,28.104 C68.4762365,30.3440112 68.0442408,32.4959897 67.1802365,34.56 C66.3162322,36.6240103 65.1162442,38.4479921 63.5802365,40.032 C62.0442288,41.6160079 60.2122472,42.8879952 58.0842365,43.848 C55.9562259,44.8080048 53.6282492,45.288 51.1002365,45.288 Z M43.3722365,28.008 C43.3722365,29.1600058 43.5322349,30.2719946 43.8522365,31.344 C44.1722381,32.4160054 44.6522333,33.3679958 45.2922365,34.2 C45.9322397,35.0320042 46.7402316,35.7039974 47.7162365,36.216 C48.6922414,36.7280026 49.8522298,36.984 51.1962365,36.984 C52.5402432,36.984 53.7082316,36.7200026 54.7002365,36.192 C55.6922415,35.6639974 56.5002334,34.9760042 57.1242365,34.128 C57.7482396,33.2799958 58.212235,32.3120054 58.5162365,31.224 C58.820238,30.1359946 58.9722365,29.0320056 58.9722365,27.912 C58.9722365,26.7599942 58.8122381,25.6480054 58.4922365,24.576 C58.1722349,23.5039946 57.6842398,22.5600041 57.0282365,21.744 C56.3722332,20.9279959 55.5562414,20.2720025 54.5802365,19.776 C53.6042316,19.2799975 52.4602431,19.032 51.1482365,19.032 C49.8042298,19.032 48.6442414,19.2879974 47.6682365,19.8 C46.6922316,20.3120026 45.8842397,20.9919958 45.2442365,21.84 C44.6042333,22.6880042 44.132238,23.6479946 43.8282365,24.72 C43.524235,25.7920054 43.3722365,26.8879944 43.3722365,28.008 Z M90.728473,36.984 C91.8164785,36.984 92.7444692,36.7440024 93.512473,36.264 C94.2804769,35.7839976 94.9044706,35.1520039 95.384473,34.368 C95.8644754,33.5839961 96.2164719,32.6800051 96.440473,31.656 C96.6644742,30.6319949 96.776473,29.5600056 96.776473,28.44 L96.776473,10.92 L106.136473,10.92 L106.136473,28.44 C106.136473,30.8080118 105.832476,33.0239897 105.224473,35.088 C104.61647,37.1520103 103.672479,38.9359925 102.392473,40.44 C101.112467,41.9440075 99.5044827,43.1279957 97.568473,43.992 C95.6324634,44.8560043 93.3524862,45.288 90.728473,45.288 C88.0084594,45.288 85.6804827,44.8320046 83.744473,43.92 C81.8084634,43.0079954 80.2164793,41.7840077 78.968473,40.248 C77.7204668,38.7119923 76.8084759,36.9280102 76.232473,34.896 C75.6564702,32.8639898 75.368473,30.7120114 75.368473,28.44 L75.368473,10.92 L84.728473,10.92 L84.728473,28.44 C84.728473,29.5600056 84.8404719,30.6399948 85.064473,31.68 C85.2884742,32.7200052 85.6404706,33.6319961 86.120473,34.416 C86.6004754,35.2000039 87.2164693,35.8239977 87.968473,36.288 C88.7204768,36.7520023 89.6404676,36.984 90.728473,36.984 Z M114.90071,45 L114.90071,10.92 L130.54871,10.92 C132.212718,10.92 133.748703,11.2639966 135.15671,11.952 C136.564717,12.6400034 137.772705,13.5359945 138.78071,14.64 C139.788715,15.7440055 140.580707,17.0079929 141.15671,18.432 C141.732712,19.8560071 142.02071,21.2879928 142.02071,22.728 C142.02071,24.7120099 141.588714,26.5599914 140.72471,28.272 C139.860705,29.9840086 138.660717,31.3839946 137.12471,32.472 L144.32471,45 L133.76471,45 L127.76471,34.536 L124.26071,34.536 L124.26071,45 L114.90071,45 Z M124.26071,26.376 L130.16471,26.376 C130.740712,26.376 131.276707,26.0560032 131.77271,25.416 C132.268712,24.7759968 132.51671,23.8800058 132.51671,22.728 C132.51671,21.5439941 132.228712,20.6400031 131.65271,20.016 C131.076707,19.3919969 130.500712,19.08 129.92471,19.08 L124.26071,19.08 L124.26071,26.376 Z" id="TOUR"></path>
            </g>
        </g>
    </g>
</svg>