<?xml version="1.0" encoding="UTF-8"?>
<svg width="35px" height="35px" viewBox="0 0 35 35" version="1.1" xmlns="http://www.w3.org/2000/svg" xmlns:xlink="http://www.w3.org/1999/xlink">
    <!-- Generator: Sketch 49.3 (51167) - http://www.bohemiancoding.com/sketch -->
    <title>noun_1061270_cc</title>
    <desc>Created with Sketch.</desc>
    <defs></defs>
    <g id="Page-1" stroke="none" stroke-width="1" fill="none" fill-rule="evenodd">
        <g id="Overview" transform="translate(-30.000000, -30.000000)" fill="#000000" fill-rule="nonzero">
            <g id="noun_1061270_cc" transform="translate(30.000000, 30.000000)">
                <g id="Group">
                    <path d="M17.5002734,0.000546875 C7.83480469,0.000546875 0,7.83453125 0,17.5 C0,27.1646484 7.83480469,34.9994531 17.5002734,34.9994531 C27.164375,34.9994531 35,27.1646484 35,17.5 C35,7.83453125 27.164375,0.000546875 17.5002734,0.000546875 Z M17.5002734,32.8469531 C9.03738281,32.8469531 2.1525,25.9620703 2.1525,17.5 C2.1525,9.03792969 9.03738281,2.15304687 17.5002734,2.15304687 C25.9626172,2.15304687 32.8475,9.03792969 32.8475,17.5 C32.8475,25.9620703 25.9626172,32.8469531 17.5002734,32.8469531 Z" id="Shape"></path>
                    <rect id="Rectangle-path" x="16.174375" y="12.5135938" width="2.65234375" height="14.5873438"></rect>
                    <path d="M17.5002734,6.75691406 C16.5060547,6.75691406 15.8429688,7.51050781 15.8429688,8.41476563 C15.8429688,9.31875 16.4757031,10.0422656 17.4401172,10.0422656 C18.4950391,10.0422656 19.1283203,9.31875 19.1283203,8.41476563 C19.1283203,7.48042969 18.4646875,6.75691406 17.5002734,6.75691406 Z" id="Shape"></path>
                </g>
            </g>
        </g>
    </g>
</svg>