<?xml version="1.0" encoding="UTF-8"?>
<svg width="49px" height="65px" viewBox="0 0 49 65" version="1.1" xmlns="http://www.w3.org/2000/svg" xmlns:xlink="http://www.w3.org/1999/xlink">
    <!-- Generator: Sketch 49.3 (51167) - http://www.bohemiancoding.com/sketch -->
    <title>hipster-chick</title>
    <desc>Created with Sketch.</desc>
    <defs></defs>
    <g id="Page-1" stroke="none" stroke-width="1" fill="none" fill-rule="evenodd">
        <g id="Overview" transform="translate(-29.000000, -100.000000)">
            <g id="hipster-chick" transform="translate(29.000000, 100.000000)">
                <path d="M1.355,64.506 L47.998,64.506 L47.998,53.89 C47.998,45.088 40.212,37.885 30.695,37.885 L18.658,37.885 C9.141,37.885 1.355,45.088 1.355,53.89 L1.355,64.506" id="Fill-783" fill="#3B4B4E"></path>
                <path d="M47.998,64.977 L1.355,64.977 C1.095,64.977 0.884,64.767 0.884,64.506 L0.884,53.89 C0.884,49.354 2.889,45.231 6.119,42.243 C9.34,39.264 13.779,37.415 18.658,37.415 L30.695,37.415 C35.574,37.415 40.013,39.264 43.233,42.243 C46.464,45.231 48.469,49.354 48.469,53.89 L48.469,64.506 C48.469,64.767 48.258,64.977 47.998,64.977 Z M1.826,64.035 L47.527,64.035 L47.527,53.89 C47.527,49.624 45.639,45.744 42.597,42.931 C39.546,40.108 35.333,38.357 30.695,38.357 L18.658,38.357 C14.02,38.357 9.807,40.108 6.756,42.931 C3.714,45.744 1.826,49.624 1.826,53.89 L1.826,64.035 Z" id="Fill-784" fill="#171816"></path>
                <path d="M10.376,50.363 C10.461,50.119 10.729,49.989 10.974,50.075 C11.219,50.16 11.348,50.428 11.263,50.672 C10.991,51.452 10.78,52.271 10.638,53.122 C10.501,53.947 10.429,54.803 10.429,55.683 L10.429,64.036 L38.924,64.036 L38.924,55.683 C38.924,54.803 38.852,53.947 38.714,53.122 C38.572,52.271 38.361,51.452 38.09,50.672 C38.005,50.428 38.134,50.16 38.379,50.075 C38.624,49.989 38.891,50.119 38.977,50.363 C39.267,51.196 39.491,52.067 39.641,52.968 C39.788,53.85 39.866,54.758 39.866,55.683 L39.866,64.506 C39.866,64.767 39.655,64.977 39.395,64.977 L9.958,64.977 C9.698,64.977 9.487,64.767 9.487,64.506 L9.487,55.683 C9.487,54.758 9.564,53.85 9.711,52.968 C9.862,52.067 10.086,51.196 10.376,50.363" id="Fill-785" fill="#171816"></path>
                <path d="M19.628,32.989 L29.457,32.989 L29.457,39.108 C29.457,41.426 27.245,43.322 24.542,43.322 C21.839,43.322 19.628,41.426 19.628,39.108 L19.628,32.989" id="Fill-786" fill="#F5BD77"></path>
                <path d="M28.986,33.46 L20.099,33.46 L20.099,39.108 C20.099,40.124 20.589,41.051 21.377,41.727 C22.186,42.421 23.306,42.851 24.542,42.851 C25.779,42.851 26.899,42.421 27.708,41.727 C28.496,41.051 28.986,40.124 28.986,39.108 L28.986,33.46 Z M19.628,32.518 L29.927,32.518 L29.927,39.108 C29.927,40.41 29.311,41.59 28.318,42.441 C27.346,43.275 26.009,43.793 24.542,43.793 C23.076,43.793 21.739,43.275 20.766,42.441 C19.773,41.59 19.157,40.41 19.157,39.108 L19.157,32.518 L19.628,32.518 Z" id="Fill-787" fill="#171816"></path>
                <path d="M12.018,60.924 C11.798,60.786 11.732,60.496 11.871,60.276 C12.009,60.057 12.299,59.991 12.518,60.129 C13.921,61.011 15.45,61.496 17.106,61.581 C18.78,61.668 20.587,61.35 22.529,60.627 C22.772,60.536 23.042,60.66 23.133,60.903 C23.223,61.146 23.099,61.416 22.856,61.506 C20.792,62.275 18.859,62.613 17.058,62.519 C15.239,62.425 13.559,61.893 12.018,60.924" id="Fill-788" fill="#171816"></path>
                <path d="M36.566,60.129 C36.786,59.991 37.076,60.057 37.214,60.276 C37.352,60.496 37.286,60.786 37.067,60.924 C35.526,61.893 33.846,62.425 32.026,62.519 C30.225,62.613 28.292,62.275 26.228,61.506 C25.985,61.416 25.862,61.146 25.952,60.903 C26.042,60.66 26.313,60.536 26.555,60.627 C28.497,61.35 30.305,61.668 31.979,61.581 C33.634,61.496 35.164,61.011 36.566,60.129" id="Fill-789" fill="#171816"></path>
                <polygon id="Fill-790" fill="#F5BD77" points="1.355 64.506 9.958 64.506 9.958 58.568 1.355 58.568"></polygon>
                <path d="M1.826,64.035 L9.487,64.035 L9.487,59.039 L1.826,59.039 L1.826,64.035 Z M1.355,58.097 L9.958,58.097 C10.218,58.097 10.429,58.308 10.429,58.568 L10.429,64.506 C10.429,64.767 10.218,64.977 9.958,64.977 L1.355,64.977 C1.095,64.977 0.884,64.767 0.884,64.506 L0.884,58.568 C0.884,58.308 1.095,58.097 1.355,58.097 Z" id="Fill-791" fill="#171816"></path>
                <polygon id="Fill-792" fill="#F5BD77" points="39.395 64.506 47.998 64.506 47.998 58.568 39.395 58.568"></polygon>
                <path d="M39.866,64.035 L47.527,64.035 L47.527,59.039 L39.866,59.039 L39.866,64.035 Z M39.395,58.097 L47.998,58.097 C48.258,58.097 48.469,58.308 48.469,58.568 L48.469,64.506 C48.469,64.767 48.258,64.977 47.998,64.977 L39.395,64.977 C39.135,64.977 38.924,64.767 38.924,64.506 L38.924,58.568 C38.924,58.308 39.135,58.097 39.395,58.097 Z" id="Fill-793" fill="#171816"></path>
                <path d="M29.457,40.63 C29.457,33.183 29.577,28.337 35.391,27.556 C38.373,29.278 38.87,32.682 38.87,36.111 L38.87,43.56 C38.87,46.989 37.902,50.15 36.29,52.639 C34.401,55.555 31.627,57.549 28.49,57.97 C28.081,58.025 27.665,58.053 27.245,58.053 C26.011,58.053 24.82,57.811 23.703,57.361 C28.312,55.567 29.457,51.234 29.457,48.078 L29.457,40.63" id="Fill-794" fill="#CB5340"></path>
                <path d="M30.689,31.742 C29.957,33.909 29.927,36.947 29.927,40.63 L29.927,48.078 C29.927,49.937 29.542,52.193 28.33,54.15 C27.569,55.376 26.488,56.48 24.979,57.29 C25.164,57.339 25.351,57.381 25.54,57.418 C26.094,57.526 26.663,57.583 27.245,57.583 C27.452,57.583 27.65,57.576 27.837,57.564 C28.04,57.55 28.238,57.53 28.428,57.505 C29.898,57.307 31.287,56.745 32.535,55.892 C33.83,55.007 34.972,53.81 35.896,52.383 C36.691,51.156 37.325,49.757 37.757,48.24 C38.173,46.776 38.4,45.2 38.4,43.56 L38.4,36.111 C38.4,34.436 38.28,32.773 37.804,31.34 C37.357,29.995 36.589,28.838 35.295,28.044 C32.704,28.435 31.371,29.721 30.689,31.742 Z M28.986,40.63 C28.986,36.866 29.017,33.757 29.798,31.444 C30.615,29.027 32.209,27.509 35.328,27.09 C35.446,27.075 35.559,27.104 35.65,27.164 C37.239,28.09 38.166,29.456 38.694,31.046 C39.212,32.603 39.341,34.357 39.341,36.111 L39.341,43.56 C39.341,45.284 39.102,46.946 38.662,48.494 C38.205,50.102 37.531,51.587 36.684,52.895 C35.691,54.426 34.461,55.714 33.064,56.668 C31.699,57.602 30.173,58.218 28.553,58.436 C28.331,58.465 28.113,58.487 27.9,58.502 C27.674,58.517 27.456,58.524 27.245,58.524 C26.606,58.524 25.976,58.462 25.359,58.341 C24.734,58.219 24.122,58.036 23.528,57.797 C23.287,57.701 23.17,57.427 23.267,57.187 C23.319,57.056 23.423,56.962 23.547,56.918 C25.429,56.183 26.698,55.001 27.531,53.657 C28.635,51.876 28.986,49.798 28.986,48.078 L28.986,40.63 Z" id="Fill-795" fill="#171816"></path>
                <path d="M22.83,19.038 C22.83,10.94 19.85,6.72 13.212,5.871 C9.77,5.871 8.034,9.513 8.034,13.241 L8.034,21.34 C8.034,25.069 9.139,28.507 10.98,31.213 C13.137,34.384 16.303,36.552 19.884,37.01 C20.351,37.069 20.826,37.1 21.306,37.1 C22.714,37.1 24.073,36.836 25.349,36.348 C23.765,33.753 22.83,30.569 22.83,27.137 L22.83,19.038" id="Fill-796" fill="#CB5340"></path>
                <path d="M20.891,9.461 C22.527,11.718 23.301,14.889 23.301,19.038 L23.301,27.137 C23.301,28.784 23.52,30.368 23.925,31.849 C24.345,33.385 24.966,34.818 25.75,36.103 L26.044,36.585 L25.517,36.788 C24.849,37.043 24.155,37.24 23.439,37.373 C22.739,37.503 22.026,37.571 21.306,37.571 C21.067,37.571 20.819,37.563 20.564,37.547 C20.325,37.531 20.078,37.507 19.825,37.475 C17.988,37.24 16.257,36.574 14.708,35.566 C13.121,34.532 11.721,33.137 10.592,31.476 C9.626,30.057 8.858,28.445 8.338,26.702 C7.837,25.021 7.563,23.215 7.563,21.34 L7.563,13.241 C7.563,11.162 8.086,9.099 9.127,7.618 C10.073,6.272 11.435,5.4 13.212,5.4 L13.228,5.4 L13.271,5.406 C16.726,5.848 19.236,7.177 20.891,9.461 Z M22.359,19.038 C22.359,15.09 21.642,12.101 20.129,10.012 C18.641,7.958 16.356,6.755 13.196,6.342 C11.77,6.347 10.668,7.06 9.896,8.159 C8.97,9.477 8.505,11.342 8.505,13.241 L8.505,21.34 C8.505,23.125 8.764,24.84 9.24,26.433 C9.733,28.089 10.459,29.613 11.368,30.95 C12.427,32.506 13.736,33.812 15.22,34.779 C16.654,35.712 18.251,36.328 19.943,36.544 C20.159,36.572 20.386,36.593 20.623,36.608 C20.839,36.622 21.066,36.629 21.306,36.629 C21.978,36.629 22.635,36.568 23.27,36.45 C23.738,36.363 24.201,36.244 24.656,36.095 C23.965,34.869 23.411,33.526 23.02,32.096 C22.591,30.527 22.359,28.86 22.359,27.137 L22.359,19.038 Z" id="Fill-797" fill="#171816"></path>
                <path d="M19.628,32.989 L29.457,32.989 L29.457,39.108 C29.457,41.426 27.245,43.322 24.542,43.322 C21.839,43.322 19.628,41.426 19.628,39.108 L19.628,32.989" id="Fill-798" fill="#F5BD77"></path>
                <path d="M28.986,33.46 L20.099,33.46 L20.099,39.108 C20.099,40.124 20.589,41.051 21.377,41.727 C22.186,42.421 23.306,42.851 24.542,42.851 C25.779,42.851 26.899,42.421 27.708,41.727 C28.496,41.051 28.986,40.124 28.986,39.108 L28.986,33.46 Z M19.628,32.518 L29.927,32.518 L29.927,39.108 C29.927,40.41 29.311,41.59 28.318,42.441 C27.346,43.275 26.009,43.793 24.542,43.793 C23.076,43.793 21.739,43.275 20.766,42.441 C19.773,41.59 19.157,40.41 19.157,39.108 L19.157,32.518 L19.628,32.518 Z" id="Fill-799" fill="#171816"></path>
                <path d="M24.754,6.975 C31.148,6.975 36.38,12.207 36.38,18.601 L36.38,22.877 C36.38,29.271 31.148,34.503 24.754,34.503 C18.36,34.503 13.128,29.272 13.128,22.877 L13.128,18.601 C13.128,12.207 18.36,6.975 24.754,6.975" id="Fill-800" fill="#F5BD77"></path>
                <path d="M24.754,7.446 C21.687,7.446 18.898,8.701 16.876,10.723 C14.854,12.745 13.599,15.534 13.599,18.601 L13.599,22.877 C13.599,25.944 14.854,28.733 16.876,30.755 C18.898,32.777 21.687,34.032 24.754,34.032 C27.821,34.032 30.61,32.777 32.632,30.755 C34.654,28.733 35.909,25.944 35.909,22.877 L35.909,18.601 C35.909,15.534 34.654,12.745 32.632,10.723 C30.61,8.701 27.821,7.446 24.754,7.446 Z M24.754,6.504 C28.081,6.504 31.105,7.865 33.298,10.057 C35.49,12.25 36.851,15.274 36.851,18.601 L36.851,22.877 C36.851,26.204 35.49,29.229 33.298,31.421 C31.105,33.613 28.081,34.974 24.754,34.974 C21.427,34.974 18.402,33.613 16.21,31.421 C14.018,29.229 12.657,26.204 12.657,22.877 L12.657,18.601 C12.657,15.274 14.018,12.25 16.21,10.057 C18.402,7.865 21.427,6.504 24.754,6.504 Z" id="Fill-801" fill="#171816"></path>
                <path d="M10.268,19.895 L10.268,20.185 C10.268,21.883 11.508,23.306 13.128,23.593 L13.128,17.121 C12.723,18.416 12.034,19.509 10.268,19.895" id="Fill-802" fill="#F5BD77"></path>
                <path d="M10.74,20.26 C10.758,20.958 11.017,21.6 11.439,22.102 C11.762,22.487 12.18,22.791 12.657,22.975 L12.657,19.051 C12.624,19.09 12.59,19.129 12.555,19.167 C12.115,19.646 11.533,20.027 10.74,20.26 Z M9.797,20.185 L9.797,19.516 L10.169,19.435 C10.947,19.265 11.482,18.945 11.863,18.531 C12.251,18.108 12.495,17.57 12.679,16.982 L13.599,14.038 L13.599,24.155 L13.047,24.057 C12.119,23.892 11.301,23.4 10.718,22.705 C10.144,22.021 9.797,21.141 9.797,20.185 Z" id="Fill-803" fill="#171816"></path>
                <path d="M25.007,24.72 C25.007,24.98 24.796,25.191 24.536,25.191 C24.276,25.191 24.065,24.98 24.065,24.72 C24.065,23.929 24.068,23.523 24.289,23.22 C24.556,22.853 24.902,22.836 25.581,22.836 C25.852,22.836 26.013,22.695 26.079,22.516 C26.11,22.435 26.125,22.345 26.125,22.255 C26.126,22.165 26.111,22.074 26.082,21.989 C26.029,21.834 25.923,21.714 25.778,21.714 C25.518,21.714 25.307,21.504 25.307,21.244 L25.307,17.693 C25.307,17.433 25.518,17.222 25.778,17.222 C26.038,17.222 26.249,17.433 26.249,17.693 L26.249,20.863 C26.601,21.009 26.846,21.316 26.972,21.684 L26.972,21.685 C27.033,21.864 27.064,22.061 27.064,22.259 C27.062,22.457 27.028,22.657 26.959,22.844 C26.764,23.366 26.317,23.778 25.581,23.778 C25.222,23.778 25.054,23.767 25.05,23.772 C25.008,23.831 25.007,24.131 25.007,24.72" id="Fill-804" fill="#171816"></path>
                <path d="M36.38,16.776 L36.387,16.777 C36.447,16.266 36.884,15.865 37.411,15.865 L38.208,15.865 C38.775,15.865 39.239,16.33 39.239,16.897 L39.239,20.185 C39.239,21.883 37.999,23.306 36.38,23.593 L36.38,16.776" id="Fill-805" fill="#F5BD77"></path>
                <path d="M36.063,16.237 C36.15,16.061 36.27,15.904 36.414,15.775 C36.68,15.539 37.03,15.395 37.411,15.395 L38.208,15.395 C38.621,15.395 38.997,15.563 39.269,15.835 C39.541,16.108 39.71,16.483 39.71,16.897 L39.71,20.185 C39.71,21.141 39.364,22.021 38.79,22.705 C38.207,23.4 37.389,23.892 36.46,24.057 L35.909,24.155 L35.909,16.208 L36.063,16.237 Z M36.854,16.831 L36.851,16.859 L36.851,22.975 C37.327,22.791 37.745,22.487 38.069,22.102 C38.505,21.582 38.768,20.912 38.768,20.185 L38.768,16.897 C38.768,16.744 38.705,16.603 38.603,16.501 C38.502,16.4 38.361,16.336 38.208,16.336 L37.411,16.336 C37.269,16.336 37.139,16.39 37.04,16.478 C36.939,16.568 36.87,16.692 36.854,16.831 Z" id="Fill-806" fill="#171816"></path>
                <path d="M24.312,13.672 C18.339,13.672 13.839,11.686 13.212,5.871 C14.178,2.712 17.285,0.711 20.036,0.711 L26.011,0.711 C28.761,0.711 31.297,1.679 33.294,3.292 C35.633,5.181 37.232,7.955 37.57,11.091 C37.614,11.501 37.637,11.916 37.637,12.337 C37.637,13.571 37.442,14.761 37.082,15.879 C35.167,14.492 32.818,13.672 30.287,13.672 L24.312,13.672" id="Fill-807" fill="#CB5340"></path>
                <path d="M17.007,11.555 C18.874,12.726 21.408,13.201 24.312,13.201 L30.287,13.201 C31.578,13.201 32.826,13.407 33.999,13.788 C35,14.113 35.944,14.566 36.812,15.125 C36.903,14.776 36.977,14.42 37.034,14.06 C37.121,13.506 37.166,12.93 37.166,12.337 C37.166,12.12 37.16,11.92 37.151,11.737 C37.14,11.541 37.124,11.341 37.102,11.141 C36.943,9.66 36.49,8.262 35.802,7.008 C35.094,5.716 34.137,4.577 32.999,3.658 C32.024,2.87 30.913,2.242 29.71,1.816 C28.553,1.405 27.307,1.182 26.011,1.182 L20.036,1.182 C18.708,1.182 17.285,1.687 16.095,2.587 C15.017,3.403 14.133,4.54 13.69,5.915 C14.003,8.611 15.199,10.421 17.007,11.555 Z M24.312,14.143 C21.243,14.143 18.54,13.625 16.507,12.349 C14.436,11.05 13.075,8.988 12.745,5.921 C12.737,5.845 12.747,5.772 12.773,5.705 C13.271,4.098 14.287,2.776 15.529,1.836 C16.881,0.814 18.508,0.24 20.036,0.24 L26.011,0.24 C27.414,0.24 28.765,0.483 30.023,0.929 C31.327,1.391 32.53,2.072 33.588,2.926 C34.823,3.923 35.859,5.157 36.626,6.555 C37.372,7.915 37.864,9.432 38.037,11.042 C38.06,11.252 38.077,11.468 38.089,11.689 C38.101,11.919 38.107,12.136 38.107,12.337 C38.107,12.964 38.057,13.588 37.961,14.204 C37.863,14.828 37.718,15.436 37.529,16.023 C37.449,16.27 37.185,16.405 36.938,16.326 C36.89,16.31 36.845,16.288 36.806,16.259 C35.87,15.582 34.827,15.046 33.709,14.682 C32.631,14.332 31.481,14.143 30.287,14.143 L24.312,14.143 Z" id="Fill-808" fill="#171816"></path>
                <path d="M28.623,26.434 C28.279,28.375 26.572,29.862 24.536,29.862 C22.5,29.862 20.794,28.375 20.45,26.434 L28.623,26.434" id="Fill-809" fill="#FFFFFE"></path>
                <path d="M26.894,28.53 C27.402,28.104 27.795,27.544 28.016,26.905 L21.057,26.905 C21.277,27.544 21.67,28.104 22.178,28.53 C22.818,29.067 23.641,29.391 24.536,29.391 C25.432,29.391 26.255,29.067 26.894,28.53 Z M29.082,26.539 C28.884,27.62 28.308,28.572 27.498,29.252 C26.694,29.926 25.66,30.333 24.536,30.333 C23.412,30.333 22.378,29.926 21.575,29.252 C20.758,28.566 20.179,27.605 19.986,26.515 C19.942,26.259 20.113,26.015 20.369,25.97 C20.396,25.965 20.423,25.963 20.45,25.963 L28.623,25.963 C28.882,25.963 29.093,26.174 29.093,26.434 C29.093,26.47 29.089,26.505 29.082,26.539 Z" id="Fill-810" fill="#171816"></path>
                <path d="M34.74,36.927 C34.74,37.187 34.529,37.397 34.269,37.397 C34.009,37.397 33.798,37.187 33.798,36.927 L33.798,29.537 C33.798,29.277 34.009,29.066 34.269,29.066 C34.529,29.066 34.74,29.277 34.74,29.537 L34.74,36.927" id="Fill-811" fill="#171816"></path>
                <path d="M33.16,34.557 C33.16,34.817 32.949,35.028 32.689,35.028 C32.429,35.028 32.219,34.817 32.219,34.557 L32.219,31.354 C32.219,31.094 32.429,30.884 32.689,30.884 C32.949,30.884 33.16,31.094 33.16,31.354 L33.16,34.557" id="Fill-812" fill="#171816"></path>
                <path d="M23.758,57.768 C23.5,57.799 23.266,57.614 23.235,57.356 C23.205,57.098 23.389,56.864 23.647,56.834 C26.951,56.444 28.868,55.428 29.97,53.958 C31.076,52.481 31.396,50.502 31.483,48.219 C31.492,47.96 31.71,47.758 31.969,47.767 C32.228,47.776 32.43,47.994 32.421,48.252 C32.328,50.706 31.97,52.853 30.72,54.521 C29.466,56.195 27.348,57.344 23.758,57.768" id="Fill-813" fill="#171816"></path>
                <path d="M14.28,3.303 C14.221,3.05 14.378,2.797 14.631,2.738 C14.884,2.68 15.137,2.837 15.196,3.09 C15.909,6.144 17.027,7.999 18.419,9.072 C19.795,10.133 21.469,10.444 23.297,10.406 C23.556,10.402 23.77,10.608 23.775,10.867 C23.78,11.126 23.574,11.34 23.315,11.345 C21.29,11.386 19.419,11.029 17.845,9.815 C16.286,8.614 15.047,6.59 14.28,3.303" id="Fill-814" fill="#171816"></path>
                <path d="M37.543,15.793 C37.591,16.048 37.423,16.293 37.168,16.341 C36.913,16.388 36.668,16.22 36.62,15.965 C36.466,15.158 36.199,14.488 35.817,13.957 C35.445,13.44 34.958,13.049 34.356,12.783 C34.119,12.679 34.011,12.401 34.115,12.163 C34.22,11.926 34.497,11.818 34.735,11.922 C35.491,12.256 36.105,12.752 36.578,13.409 C37.042,14.054 37.364,14.849 37.543,15.793" id="Fill-815" fill="#171816"></path>
                <path d="M15.42,11.258 C15.644,11.126 15.932,11.2 16.064,11.424 C16.196,11.647 16.122,11.935 15.898,12.068 C14.595,12.839 14.272,14.308 13.954,15.755 C13.394,18.301 12.847,20.788 8.007,20.492 C7.747,20.477 7.55,20.254 7.565,19.996 C7.58,19.736 7.803,19.539 8.062,19.554 C12.1,19.801 12.562,17.703 13.034,15.556 C13.396,13.91 13.764,12.239 15.42,11.258" id="Fill-816" fill="#171816"></path>
                <path d="M13.39,7.14 C13.637,7.059 13.903,7.193 13.984,7.44 C14.066,7.687 13.931,7.953 13.685,8.034 C13.048,8.245 12.491,8.594 12.015,9.083 C11.527,9.584 11.117,10.234 10.789,11.031 C10.69,11.271 10.416,11.385 10.176,11.287 C9.937,11.188 9.822,10.914 9.92,10.674 C10.296,9.764 10.77,9.015 11.342,8.428 C11.927,7.828 12.61,7.398 13.39,7.14" id="Fill-817" fill="#171816"></path>
                <path d="M24.783,7.444 C24.524,7.461 24.301,7.264 24.285,7.005 C24.268,6.746 24.465,6.522 24.724,6.506 C26.277,6.405 27.683,6.416 28.94,6.539 C30.212,6.662 31.331,6.901 32.298,7.253 C32.541,7.341 32.667,7.61 32.579,7.854 C32.491,8.098 32.221,8.224 31.978,8.136 C31.084,7.81 30.042,7.589 28.852,7.473 C27.649,7.356 26.292,7.346 24.783,7.444" id="Fill-818" fill="#171816"></path>
                <path d="M26.969,5.4 C26.71,5.393 26.506,5.177 26.513,4.918 C26.521,4.659 26.736,4.455 26.995,4.461 C27.63,4.481 28.225,4.523 28.779,4.587 C29.341,4.653 29.877,4.743 30.385,4.858 C30.638,4.915 30.797,5.166 30.74,5.419 C30.683,5.672 30.432,5.831 30.179,5.774 C29.713,5.669 29.21,5.585 28.672,5.522 C28.127,5.458 27.559,5.417 26.969,5.4" id="Fill-819" fill="#171816"></path>
                <path d="M30.224,14.799 C32.473,14.799 34.299,16.625 34.299,18.874 C34.299,21.124 32.474,22.95 30.224,22.95 C27.974,22.95 26.148,21.124 26.148,18.874 C26.148,16.625 27.974,14.799 30.224,14.799 Z M19.284,14.799 C21.533,14.799 23.359,16.625 23.359,18.874 C23.359,21.124 21.533,22.95 19.284,22.95 C17.034,22.95 15.208,21.124 15.208,18.874 C15.208,16.625 17.034,14.799 19.284,14.799 Z" id="Fill-820" fill="#EAAC63"></path>
                <path d="M32.772,16.326 C32.12,15.674 31.219,15.27 30.224,15.27 C29.229,15.27 28.328,15.674 27.676,16.326 C27.023,16.978 26.619,17.88 26.619,18.874 C26.619,19.869 27.023,20.77 27.676,21.423 C28.328,22.075 29.229,22.479 30.224,22.479 C31.219,22.479 32.12,22.075 32.772,21.423 C33.424,20.77 33.828,19.869 33.828,18.874 C33.828,17.88 33.424,16.978 32.772,16.326 Z M30.224,14.328 C31.478,14.328 32.615,14.837 33.438,15.66 C34.261,16.483 34.77,17.62 34.77,18.874 C34.77,20.129 34.261,21.266 33.438,22.089 C32.615,22.911 31.478,23.421 30.224,23.421 C28.969,23.421 27.832,22.911 27.01,22.089 C26.187,21.266 25.677,20.129 25.677,18.874 C25.677,17.62 26.187,16.483 27.01,15.66 C27.832,14.837 28.969,14.328 30.224,14.328 Z M21.832,16.326 C21.18,15.674 20.278,15.27 19.284,15.27 C18.289,15.27 17.387,15.674 16.735,16.326 C16.083,16.978 15.679,17.88 15.679,18.874 C15.679,19.869 16.083,20.77 16.735,21.423 C17.387,22.075 18.289,22.479 19.284,22.479 C20.278,22.479 21.18,22.075 21.832,21.423 C22.484,20.77 22.888,19.869 22.888,18.874 C22.888,17.88 22.484,16.978 21.832,16.326 Z M19.284,14.328 C20.539,14.328 21.675,14.837 22.498,15.66 C23.321,16.483 23.83,17.62 23.83,18.874 C23.83,20.129 23.321,21.266 22.498,22.089 C21.675,22.911 20.539,23.421 19.284,23.421 C18.029,23.421 16.892,22.911 16.069,22.089 C15.247,21.266 14.737,20.129 14.737,18.874 C14.737,17.62 15.247,16.483 16.069,15.66 C16.892,14.837 18.029,14.328 19.284,14.328 Z" id="Fill-821" fill="#171816"></path>
                <path d="M25.007,24.72 C25.007,24.98 24.796,25.191 24.536,25.191 C24.276,25.191 24.065,24.98 24.065,24.72 C24.065,23.929 24.068,23.523 24.289,23.22 C24.556,22.853 24.902,22.836 25.581,22.836 C25.852,22.836 26.013,22.695 26.079,22.516 C26.11,22.435 26.125,22.345 26.125,22.255 C26.126,22.165 26.111,22.074 26.082,21.989 C26.029,21.834 25.923,21.714 25.778,21.714 C25.518,21.714 25.307,21.504 25.307,21.244 L25.307,17.693 C25.307,17.433 25.518,17.222 25.778,17.222 C26.038,17.222 26.249,17.433 26.249,17.693 L26.249,20.863 C26.601,21.009 26.846,21.316 26.972,21.684 L26.972,21.685 C27.033,21.864 27.064,22.061 27.064,22.259 C27.062,22.457 27.028,22.657 26.959,22.844 C26.764,23.366 26.317,23.778 25.581,23.778 C25.222,23.778 25.054,23.767 25.05,23.772 C25.008,23.831 25.007,24.131 25.007,24.72" id="Fill-822" fill="#171816"></path>
                <path d="M19.284,20.27 C20.053,20.27 20.68,19.643 20.68,18.874 C20.68,18.105 20.053,17.478 19.284,17.478 C18.515,17.478 17.888,18.105 17.888,18.874 C17.888,19.643 18.515,20.27 19.284,20.27" id="Fill-823" fill="#3B4B4E"></path>
                <path d="M19.939,18.219 L19.938,18.22 C19.77,18.053 19.539,17.949 19.284,17.949 C19.027,17.949 18.796,18.052 18.629,18.219 L18.63,18.22 C18.462,18.388 18.359,18.619 18.359,18.874 C18.359,19.13 18.462,19.361 18.63,19.528 L18.629,19.529 C18.796,19.696 19.027,19.799 19.284,19.799 C19.539,19.799 19.77,19.696 19.938,19.528 L19.939,19.529 C20.106,19.362 20.209,19.13 20.209,18.874 C20.209,18.618 20.106,18.386 19.939,18.219 Z M19.284,17.008 C19.799,17.008 20.266,17.216 20.604,17.554 L20.604,17.556 C20.942,17.894 21.15,18.36 21.15,18.874 C21.15,19.388 20.942,19.855 20.604,20.192 L20.604,20.195 C20.266,20.532 19.799,20.741 19.284,20.741 C18.769,20.741 18.303,20.532 17.965,20.195 L17.964,20.195 C17.626,19.857 17.417,19.39 17.417,18.874 C17.417,18.359 17.626,17.892 17.964,17.554 L17.965,17.554 C18.303,17.216 18.769,17.008 19.284,17.008 Z" id="Fill-824" fill="#171816"></path>
                <path d="M30.224,20.27 C30.993,20.27 31.62,19.643 31.62,18.874 C31.62,18.105 30.993,17.478 30.224,17.478 C29.455,17.478 28.828,18.105 28.828,18.874 C28.828,19.643 29.455,20.27 30.224,20.27" id="Fill-825" fill="#3B4B4E"></path>
                <path d="M28.906,17.554 C29.243,17.216 29.71,17.008 30.224,17.008 C30.739,17.008 31.206,17.216 31.544,17.554 L31.544,17.556 C31.882,17.894 32.091,18.36 32.091,18.874 C32.091,19.388 31.882,19.855 31.544,20.192 L31.544,20.195 C31.206,20.532 30.739,20.741 30.224,20.741 C29.71,20.741 29.243,20.532 28.906,20.195 L28.904,20.195 C28.566,19.857 28.357,19.39 28.357,18.874 C28.357,18.359 28.566,17.892 28.904,17.554 L28.906,17.554 Z M30.224,17.949 C29.968,17.949 29.736,18.052 29.569,18.219 L29.57,18.22 C29.402,18.388 29.299,18.619 29.299,18.874 C29.299,19.13 29.402,19.361 29.57,19.528 L29.569,19.529 C29.736,19.696 29.968,19.799 30.224,19.799 C30.479,19.799 30.711,19.696 30.878,19.528 L30.879,19.529 C31.046,19.362 31.149,19.13 31.149,18.874 C31.149,18.618 31.046,18.386 30.879,18.219 L30.878,18.22 C30.711,18.053 30.479,17.949 30.224,17.949 Z" id="Fill-826" fill="#171816"></path>
                <path d="M23.256,17.565 C23.886,17.124 24.482,16.93 25.042,16.983 C25.623,17.038 26.134,17.348 26.574,17.913 L25.834,18.49 C25.56,18.138 25.266,17.947 24.954,17.918 C24.622,17.887 24.235,18.025 23.793,18.334 L23.256,17.565" id="Fill-827" fill="#171816"></path>
            </g>
        </g>
    </g>
</svg>