<?xml version="1.0" encoding="UTF-8"?>
<svg width="42px" height="37px" viewBox="0 0 42 37" version="1.1" xmlns="http://www.w3.org/2000/svg" xmlns:xlink="http://www.w3.org/1999/xlink">
    <!-- Generator: Sketch 49.3 (51167) - http://www.bohemiancoding.com/sketch -->
    <title>noun_1150005_cc</title>
    <desc>Created with Sketch.</desc>
    <defs></defs>
    <g id="Page-1" stroke="none" stroke-width="1" fill="none" fill-rule="evenodd">
        <g id="Overview" transform="translate(-302.000000, -30.000000)" fill="#000000" fill-rule="nonzero">
            <g id="noun_1150005_cc" transform="translate(302.000000, 30.000000)">
                <g id="Group">
                    <path d="M41.5336188,5.41418113 L28.0278373,0.0584598698 C28.0252677,0.0571312364 28.0214133,0.0571312364 28.0188437,0.055802603 C28.0047109,0.0504880694 27.9905782,0.0465021692 27.9751606,0.0411876356 C27.9610278,0.0372017354 27.9481799,0.0318872017 27.9340471,0.0292299349 C27.9199143,0.0252440347 27.9057816,0.0239154013 27.8916488,0.0212581345 C27.8775161,0.0186008677 27.8633833,0.0159436009 27.8479657,0.0146149675 C27.833833,0.0132863341 27.8197002,0.0132863341 27.8055675,0.0119577007 C27.7914347,0.0106290672 27.7760171,0.0106290672 27.7618844,0.0106290672 C27.7477516,0.0106290672 27.7336188,0.0119577007 27.7194861,0.0132863341 C27.7053533,0.0146149675 27.6899358,0.0146149675 27.675803,0.0172722343 C27.6616702,0.0186008677 27.6475375,0.0225867679 27.6346895,0.0252440347 C27.6205567,0.0279013015 27.6051392,0.0305585683 27.5910064,0.0345444685 C27.5768737,0.0385303688 27.5640257,0.042516269 27.5511777,0.0478308026 C27.537045,0.0531453362 27.5229122,0.0571312364 27.5087794,0.0637744035 C27.5049251,0.0651030369 27.4997859,0.0664316703 27.4959315,0.0677603037 L14.2432548,5.80081345 L0.990578158,0.0664316703 C0.770877944,-0.0292299349 0.519057816,-0.00398590022 0.319914347,0.132863341 C0.120770878,0.269712581 0.00128479657,0.500894794 0.00128479657,0.746691974 L0.00128479657,30.1666215 C0.00128479657,30.4642354 0.174732334,30.7326193 0.439400428,30.8468818 L13.945182,36.6888829 C14.033833,36.7274132 14.1276231,36.7460141 14.2201285,36.7460141 C14.2278373,36.7460141 14.235546,36.7446855 14.2432548,36.7446855 C14.2509636,36.7446855 14.2586724,36.7460141 14.2663812,36.7460141 C14.3601713,36.7460141 14.4526767,36.7274132 14.5413276,36.6888829 L27.7837259,30.9611443 L41.0222698,36.2105748 C41.1044968,36.2437907 41.191863,36.2597343 41.2779443,36.2597343 C41.4205567,36.2597343 41.5618844,36.2158894 41.6826552,36.1295282 C41.8766595,35.9913503 41.9922912,35.764154 41.9922912,35.5210141 L41.9922912,6.10241323 C41.9910064,5.79682755 41.8098501,5.52312907 41.5336188,5.41418113 Z M13.5070664,24.3777657 C13.2770878,24.5478308 13.0381156,24.7059382 12.7901499,24.8454447 C12.4432548,25.0394252 12.3147752,25.4885033 12.5036403,25.8459056 C12.6334047,26.0917028 12.8788009,26.232538 13.1319058,26.232538 C13.2462527,26.232538 13.3631692,26.203308 13.4710921,26.1435195 C13.48394,26.1368764 13.4955032,26.1289046 13.5070664,26.1222614 L13.5070664,34.9018709 L1.42869379,29.6776844 L1.42869379,1.85610087 L13.5070664,7.08028742 L13.5070664,24.3777657 Z M27.0578158,29.6763557 L14.9794433,34.9005423 L14.9794433,25.0620119 C15.6334047,24.4906996 16.2141328,23.8502983 16.7537473,23.2178688 C17.014561,22.9122831 16.9862955,22.4459328 16.6907923,22.1762202 C16.3952891,21.9065076 15.9443255,21.9357375 15.6835118,22.2413232 C15.4561028,22.5070499 15.2222698,22.7741052 14.9794433,23.0345174 L14.9794433,7.08028742 L27.0578158,1.85610087 L27.0578158,29.6763557 Z M40.5635974,34.4488069 L28.4852248,29.6590835 L28.4852248,1.8215564 L40.5635974,6.61127983 L40.5635974,34.4488069 Z" id="Shape"></path>
                    <path d="M6.65267666,20.9711497 C6.53704497,20.2058568 6.4869379,19.375461 6.49978587,18.4334599 C6.50492505,18.0255694 6.1888651,17.6907538 5.79571734,17.6854393 C5.79314775,17.6854393 5.78929336,17.6854393 5.78672377,17.6854393 C5.39743041,17.6854393 5.07880086,18.0096258 5.07366167,18.4135304 C5.0608137,19.4392354 5.11605996,20.3493492 5.24453961,21.1970174 C5.29978587,21.5610629 5.60299786,21.8214751 5.94860814,21.8214751 C5.98458244,21.8214751 6.02184154,21.8188178 6.05910064,21.8121746 C6.44582441,21.7510575 6.7130621,21.3737256 6.65267666,20.9711497 Z" id="Shape"></path>
                    <path d="M17.779015,20.759897 C17.9074946,20.8608731 18.0591006,20.9100325 18.2094218,20.9100325 C18.4252677,20.9100325 18.6385439,20.8090564 18.7798715,20.6177332 C19.035546,20.2683026 19.288651,19.9162148 19.5430407,19.5654555 C19.9130621,19.052603 20.2959315,18.5224783 20.6775161,18.0082972 C20.917773,17.6854393 20.8586724,17.2217462 20.5464668,16.9732918 C20.2342612,16.7248373 19.7858672,16.7859544 19.5456103,17.1088124 C19.1576017,17.6309653 18.7721627,18.1664046 18.3982869,18.683243 C18.1464668,19.0326735 17.8946467,19.3807755 17.640257,19.7288774 C17.4025696,20.0517354 17.4642398,20.5140998 17.779015,20.759897 Z" id="Shape"></path>
                    <path d="M30.9366167,11.4993221 C31.9528908,11.5670824 32.8946467,11.8979121 33.662955,12.4546095 C33.7875803,12.5449566 33.9301927,12.5888015 34.0728051,12.5888015 C34.2976445,12.5888015 34.5186296,12.4798536 34.6573876,12.275244 C34.8835118,11.941757 34.806424,11.4807213 34.4826552,11.2468818 C33.5010707,10.5347343 32.3062099,10.1122289 31.0291221,10.0271963 C30.6411135,10.0019523 30.296788,10.3088666 30.2710921,10.7154284 C30.2441113,11.1219902 30.5421842,11.4740781 30.9366167,11.4993221 Z" id="Shape"></path>
                    <path d="M34.1678801,23.3480748 C34.3066381,23.5553416 34.5289079,23.6656182 34.7550321,23.6656182 C34.8950749,23.6656182 35.0364026,23.623102 35.1610278,23.5340835 C35.8445396,23.0451464 36.4689507,22.3662148 36.9674518,21.571692 C37.1820128,21.2302332 37.0882227,20.7731833 36.7567452,20.5513015 C36.4265525,20.3294197 35.9845824,20.42641 35.7700214,20.7691974 C35.3717345,21.4042842 34.8796574,21.9410521 34.3477516,22.3223698 C34.0239829,22.5535521 33.9443255,23.0132592 34.1678801,23.3480748 Z" id="Shape"></path>
                    <path d="M36.1760171,18.0866866 C36.1503212,18.4932484 36.4471092,18.8453362 36.8415418,18.8719089 C36.8582441,18.8732375 36.8736617,18.8732375 36.8890792,18.8732375 C37.2616702,18.8732375 37.5751606,18.574295 37.6008565,18.1836768 C37.6882227,16.8244848 37.5533191,15.4945228 37.2,14.232321 C37.0907923,13.8403742 36.6950749,13.6145065 36.31606,13.728769 C35.937045,13.8417028 35.7199143,14.2509219 35.8291221,14.6428688 C36.1349036,15.74032 36.2518201,16.8988883 36.1760171,18.0866866 Z" id="Shape"></path>
                    <path d="M22.3143469,15.6047993 C22.4980728,15.6047993 22.6817987,15.5317245 22.8218415,15.3855748 C23.551606,14.6216106 24.4265525,13.9214208 25.4942184,13.2438178 C25.8295503,13.0312364 25.9349036,12.5768438 25.7293362,12.2287419 C25.5224839,11.8819685 25.0830835,11.7730206 24.7477516,11.985602 C23.5798715,12.7269794 22.6188437,13.4989154 21.8068522,14.3479121 C21.5293362,14.6375542 21.5319058,15.1052332 21.8119914,15.392218 C21.9520343,15.5330531 22.1331906,15.6047993 22.3143469,15.6047993 Z" id="Shape"></path>
                    <path d="M7.67665953,23.8569414 C7.43768737,23.5327549 6.98929336,23.4716377 6.675803,23.7187636 C6.36231263,23.967218 6.30321199,24.4295824 6.54218415,24.753769 C7.21927195,25.6678688 8.30235546,26.3866594 9.51520343,26.725461 C9.57687366,26.7427332 9.63982869,26.750705 9.70149893,26.750705 C10.0162741,26.750705 10.3040685,26.5341377 10.3901499,26.2046367 C10.4929336,25.8113612 10.2680942,25.406128 9.88779443,25.2998373 C8.98715203,25.0487256 8.15974304,24.5093004 7.67665953,23.8569414 Z" id="Shape"></path>
                    <path d="M6.02055675,15.9329718 C6.37259101,15.9329718 6.67965739,15.6632592 6.72719486,15.2912419 C6.86595289,14.207077 7.01884368,13.475 7.02012848,13.4670282 C7.10364026,13.0684382 6.85952891,12.6751627 6.47408994,12.5888015 C6.08865096,12.5024403 5.70835118,12.7548807 5.6248394,13.1521421 C5.61841542,13.1840293 5.45910064,13.9466649 5.31134904,15.0972614 C5.25995717,15.5011659 5.53490364,15.8718547 5.9254818,15.925 C5.95760171,15.9303145 5.98843683,15.9329718 6.02055675,15.9329718 Z" id="Shape"></path>
                    <path d="M5.39743041,10.1388015 L3.45867238,12.2274132 C3.18501071,12.5210412 3.19528908,12.9887202 3.47922912,13.2703905 C3.61798715,13.4072397 3.79528908,13.4763286 3.9738758,13.4763286 C4.1614561,13.4763286 4.3490364,13.4005965 4.48907923,13.2491323 L6.42655246,11.1605206 L8.44625268,13.1654284 C8.58501071,13.3022777 8.76231263,13.3713666 8.94089936,13.3713666 C9.12847966,13.3713666 9.31605996,13.2956345 9.45610278,13.1441703 C9.72976445,12.8505423 9.71948608,12.3828633 9.43554604,12.1011931 L7.41584582,10.0962852 L9.35460385,8.00767354 C9.62826552,7.71404555 9.61798715,7.24636659 9.33404711,6.96469631 C9.05010707,6.6816974 8.59785867,6.69232646 8.3254818,6.98595445 L6.38543897,9.07456616 L4.36573876,7.06965835 C4.08179872,6.78665944 3.62955032,6.7972885 3.35717345,7.09091649 C3.08351178,7.38454447 3.09379015,7.85222343 3.37773019,8.13389371 L5.39743041,10.1388015 Z" id="Shape"></path>
                    <path d="M30.5447537,27.8534707 C30.612848,27.8534707 30.6835118,27.8428416 30.751606,27.8215835 L32.6646681,27.2223698 L33.593576,30.0882321 C33.6937901,30.3964751 33.9713062,30.5917842 34.2706638,30.5917842 C34.345182,30.5917842 34.4222698,30.5798265 34.4980728,30.5532538 C34.8719486,30.4243764 35.0736617,30.0058568 34.9477516,29.6192245 L34.0329764,26.7945499 L36.6937901,25.9614967 C37.0715203,25.8432484 37.2847966,25.431372 37.1704497,25.0407538 C37.0561028,24.6501356 36.6578158,24.4295824 36.2800857,24.5478308 L33.5794433,25.3928416 L32.71606,22.7289317 C32.5901499,22.3422993 32.1867238,22.1337039 31.812848,22.26391 C31.4389722,22.3927874 31.2372591,22.8113069 31.3631692,23.1979393 L32.2137045,25.8206616 L30.3417559,26.4065889 C29.9640257,26.5248373 29.7507495,26.9367137 29.8650964,27.3273319 C29.9563169,27.6475325 30.2389722,27.8534707 30.5447537,27.8534707 Z" id="Shape"></path>
                </g>
            </g>
        </g>
    </g>
</svg>